<?xml version="1.0" encoding="UTF-8" standalone="no"?>
<!-- Created with Inkscape (http://www.inkscape.org/) -->

<svg
   xmlns:dc="http://purl.org/dc/elements/1.1/"
   xmlns:cc="http://creativecommons.org/ns#"
   xmlns:rdf="http://www.w3.org/1999/02/22-rdf-syntax-ns#"
   xmlns:svg="http://www.w3.org/2000/svg"
   xmlns="http://www.w3.org/2000/svg"
   xmlns:sodipodi="http://sodipodi.sourceforge.net/DTD/sodipodi-0.dtd"
   xmlns:inkscape="http://www.inkscape.org/namespaces/inkscape"
   width="177.16534"
   height="35.433071"
   id="svg2990"
   version="1.1"
   inkscape:version="0.48.5 r10040"
   sodipodi:docname="zmote.svg">
  <defs
     id="defs2992" />
  <sodipodi:namedview
     id="base"
     pagecolor="#ffffff"
     bordercolor="#666666"
     borderopacity="1.0"
     inkscape:pageopacity="0.0"
     inkscape:pageshadow="2"
     inkscape:zoom="1.7131789"
     inkscape:cx="107.01012"
     inkscape:cy="69.156456"
     inkscape:document-units="px"
     inkscape:current-layer="layer1"
     showgrid="true"
     inkscape:snap-bbox="true"
     inkscape:object-paths="false"
     inkscape:snap-intersection-paths="true"
     inkscape:window-width="1536"
     inkscape:window-height="801"
     inkscape:window-x="-8"
     inkscape:window-y="-8"
     inkscape:window-maximized="1"
     units="px"
     fit-margin-top="0"
     fit-margin-left="0"
     fit-margin-right="0"
     fit-margin-bottom="0"
     inkscape:snap-grids="true"
     inkscape:object-nodes="true"
     inkscape:snap-nodes="true">
    <inkscape:grid
       type="xygrid"
       id="grid3879"
       empspacing="10"
       visible="true"
       enabled="true"
       snapvisiblegridlinesonly="true"
       units="mm"
       spacingx="1mm"
       spacingy="1mm" />
  </sodipodi:namedview>
  <metadata
     id="metadata2995">
    <rdf:RDF>
      <cc:Work
         rdf:about="">
        <dc:format>image/svg+xml</dc:format>
        <dc:type
           rdf:resource="http://purl.org/dc/dcmitype/StillImage" />
        <dc:title></dc:title>
      </cc:Work>
    </rdf:RDF>
  </metadata>
  <g
     inkscape:label="Layer 1"
     inkscape:groupmode="layer"
     id="layer1"
     transform="translate(-0.40717726,-1016.968)">
    <path
       sodipodi:nodetypes="cccccccccccccscsccccccccsscccccccccccccccccccccccccccccccccccccssssccccccccccccccccccc"
       inkscape:connector-curvature="0"
       id="path3010"
       d="m 9.9415771,1016.968 -1.8250031,7.7802 24.941178,0 1.972708,-2.3434 -0.246157,-5.4368 z m 31.1436559,0 -1.75937,7.7802 c 14.636533,0 29.273069,0 43.909601,0 l 0.372773,-1.656 c 0.10017,-0.4192 0.176916,-0.8117 0.194823,-1.1873 0.01782,-0.3756 -0.01205,-0.7029 -0.08639,-0.9999 -0.30638,-1.2228 -1.02812,-2.1758 -2.16407,-2.8746 -1.136034,-0.6987 -2.557743,-1.0624 -4.237026,-1.0624 z m 56.806817,0 c -3.004153,0 -5.089078,0.3738 -6.281689,1.1249 -1.192588,0.7513 -2.035865,2.0916 -2.501736,4.0307 l -0.622384,2.6246 27.632189,0 0.39777,-1.6873 c 0.1046,-0.4017 0.16124,-0.7804 0.16982,-1.156 0.008,-0.3756 -0.0189,-0.7304 -0.10206,-1.0624 -0.29761,-1.1879 -1.00311,-2.1133 -2.14841,-2.8121 -1.14535,-0.6987 -2.59056,-1.0624 -4.26985,-1.0624 z m 24.4489,0 -1.82498,7.7802 29.27305,0 1.825,-7.7802 z m 34.65511,0 -1.825,7.7802 18.01673,0 2.55974,0 1.825,-7.7802 z m -140.936913,13.1546 -14.4930133,17.3416 -1.15895644,4.9369 27.40247874,0 1.825003,-7.7803 -13.356659,0 12.25174,-14.4982 z m 21.921985,0 -5.150423,22.2785 10.895356,0 5.216059,-22.2785 z m 16.638392,0 -5.150425,22.2785 10.76409,0 5.150426,-22.2785 z m 16.441489,0 -5.281694,22.2785 10.960991,0 5.21606,-22.2785 z m 16.178947,0 -3.731008,16.1543 c -0.11012,0.4542 -0.161287,0.8743 -0.179169,1.2498 -0.01785,0.3757 0.0198,0.734 0.09421,1.0311 0.297562,1.1879 1.014617,2.1221 2.148418,2.8121 1.133798,0.69 2.502892,1.0312 4.163562,1.0312 l 12.273677,0 c 3.00411,0 5.10103,-0.3825 6.31453,-1.1249 1.21342,-0.7425 2.05886,-2.0742 2.50172,-4.0308 l 4.01344,-17.1228 z m 41.71083,0 -5.18324,22.2785 10.96099,0 5.18323,-22.2785 z m 25.00681,0 -1.85781,7.7803 20.60927,0 1.825,-7.7803 z m -3.42386,14.4982 -1.82501,7.7803 20.57646,0 1.82502,-7.7803 z"
       style="font-size:144px;font-style:normal;font-variant:normal;font-weight:normal;font-stretch:normal;line-height:125%;letter-spacing:0px;word-spacing:0px;fill:#ffffff;fill-opacity:1;stroke:none;font-family:Sonic XBd BT;-inkscape-font-specification:Sonic XBd BT" />
  </g>
</svg>
